<svg width="196" height="197" viewBox="0 0 196 197" fill="none" xmlns="http://www.w3.org/2000/svg">
<ellipse rx="97.1" ry="97.645" transform="matrix(-1 0 0 1 98.1 98.645)" fill="#1A1A1A"/>
<path d="M98.9675 1.01332C80.3448 0.6518 58.6479 7.70321 47.6181 15.8396C64.4338 14.3931 77.2711 18.9133 98.7867 29.9426C120.015 18.5253 133.141 14.3932 149.594 15.8396C136.034 6.25684 116.687 1.01332 98.9675 1.01332Z" fill="#F7F7F7"/>
<path d="M72.208 54.894C55.0318 38.4405 40.8734 27.1742 30.803 28.8577C0.969683 53.8092 -13.3134 115.284 21.5818 157.774C15.6157 134.269 43.2793 91.2364 72.208 54.894Z" fill="#F7F7F7"/>
<path d="M165.686 163.56C163.879 146.202 134.587 107.871 98.7867 79.4839C68.0499 102.808 33.154 143.128 31.707 164.644C30.9189 176.362 65.6994 196.286 98.6059 196.286C132.237 196.286 167.004 176.216 165.686 163.56Z" fill="#F7F7F7"/>
<path d="M124.282 54.894C141.458 38.4405 155.616 27.1742 165.687 28.8577C195.52 53.8092 209.803 115.284 174.908 157.774C180.874 134.269 153.211 91.2364 124.282 54.894Z" fill="#F7F7F7"/>
<path d="M98.9675 1.01332C80.3448 0.6518 58.6479 7.70321 47.6181 15.8396C64.4338 14.3931 77.2711 18.9133 98.7867 29.9426C120.015 18.5253 133.141 14.3932 149.594 15.8396C136.034 6.25684 116.687 1.01332 98.9675 1.01332Z" stroke="#F7F7F7" stroke-linecap="round" stroke-linejoin="round"/>
<path d="M72.208 54.894C55.0318 38.4405 40.8734 27.1742 30.803 28.8577C0.969683 53.8092 -13.3134 115.284 21.5818 157.774C15.6157 134.269 43.2793 91.2364 72.208 54.894Z" stroke="#F7F7F7" stroke-linecap="round" stroke-linejoin="round"/>
<path d="M165.686 163.56C163.879 146.202 134.587 107.871 98.7867 79.4839C68.0499 102.808 33.154 143.128 31.707 164.644C30.9189 176.362 65.6994 196.286 98.6059 196.286C132.237 196.286 167.004 176.216 165.686 163.56Z" stroke="#F7F7F7" stroke-linecap="round" stroke-linejoin="round"/>
<path d="M124.282 54.894C141.458 38.4405 155.616 27.1742 165.687 28.8577C195.52 53.8092 209.803 115.284 174.908 157.774C180.874 134.269 153.211 91.2364 124.282 54.894Z" stroke="#F7F7F7" stroke-linecap="round" stroke-linejoin="round"/>
</svg>
